<svg width="32" height="21" viewBox="0 0 32 21" fill="none" xmlns="http://www.w3.org/2000/svg">

    <g id="burgerMenu">
        <rect x="5" width="27" height="3" fill="white"/>
        <rect y="9" width="32" height="3" fill="white"/>
        <rect x="3" y="18" width="29" height="3" fill="white"/>
    </g>

    <g id="logo">
        <path d="M13.338 36.54C10.746 36.54 8.538 35.976 6.714 34.848C4.89 33.708 3.492 32.124 2.52 30.096C1.56 28.068 1.08 25.716 1.08 23.04C1.08 20.364 1.56 18.012 2.52 15.984C3.492 13.956 4.89 12.378 6.714 11.25C8.538 10.11 10.746 9.54 13.338 9.54C16.326 9.54 18.798 10.296 20.754 11.808C22.722 13.32 24.09 15.354 24.858 17.91L21.042 18.936C20.538 17.124 19.638 15.702 18.342 14.67C17.058 13.638 15.39 13.122 13.338 13.122C11.502 13.122 9.972 13.536 8.748 14.364C7.524 15.192 6.6 16.35 5.976 17.838C5.364 19.326 5.058 21.06 5.058 23.04C5.046 25.02 5.346 26.754 5.958 28.242C6.582 29.73 7.506 30.888 8.73 31.716C9.966 32.544 11.502 32.958 13.338 32.958C15.39 32.958 17.058 32.442 18.342 31.41C19.638 30.366 20.538 28.944 21.042 27.144L24.858 28.17C24.09 30.726 22.722 32.76 20.754 34.272C18.798 35.784 16.326 36.54 13.338 36.54ZM41.0209 36V26.442C41.0209 25.686 40.9549 24.912 40.8229 24.12C40.7029 23.316 40.4629 22.572 40.1029 21.888C39.7549 21.204 39.2569 20.652 38.6089 20.232C37.9729 19.812 37.1389 19.602 36.1069 19.602C35.4349 19.602 34.7989 19.716 34.1989 19.944C33.5989 20.16 33.0709 20.514 32.6149 21.006C32.1709 21.498 31.8169 22.146 31.5529 22.95C31.3009 23.754 31.1749 24.732 31.1749 25.884L28.8349 25.002C28.8349 23.238 29.1649 21.684 29.8249 20.34C30.4849 18.984 31.4329 17.928 32.6689 17.172C33.9049 16.416 35.3989 16.038 37.1509 16.038C38.4949 16.038 39.6229 16.254 40.5349 16.686C41.4469 17.118 42.1849 17.688 42.7489 18.396C43.3249 19.092 43.7629 19.854 44.0629 20.682C44.3629 21.51 44.5669 22.32 44.6749 23.112C44.7829 23.904 44.8369 24.6 44.8369 25.2V36H41.0209ZM27.3589 36V10.08H30.7249V24.066H31.1749V36H27.3589ZM48.0853 36V16.56H51.4333V21.276L50.9653 20.664C51.2053 20.04 51.5173 19.47 51.9013 18.954C52.2853 18.426 52.7293 17.994 53.2333 17.658C53.7253 17.298 54.2713 17.022 54.8713 16.83C55.4833 16.626 56.1073 16.506 56.7433 16.47C57.3793 16.422 57.9913 16.452 58.5793 16.56V20.088C57.9433 19.92 57.2353 19.872 56.4553 19.944C55.6873 20.016 54.9793 20.262 54.3313 20.682C53.7193 21.078 53.2333 21.558 52.8733 22.122C52.5253 22.686 52.2733 23.316 52.1173 24.012C51.9613 24.696 51.8833 25.422 51.8833 26.19V36H48.0853ZM60.9272 13.374V9.72H64.6892V13.374H60.9272ZM60.9272 36V16.56H64.6892V36H60.9272ZM76.0885 36.522C73.7245 36.522 71.7985 36 70.3105 34.956C68.8225 33.912 67.9105 32.442 67.5745 30.546L71.4265 29.952C71.6665 30.96 72.2185 31.758 73.0825 32.346C73.9585 32.922 75.0445 33.21 76.3405 33.21C77.5165 33.21 78.4345 32.97 79.0945 32.49C79.7665 32.01 80.1025 31.35 80.1025 30.51C80.1025 30.018 79.9825 29.622 79.7425 29.322C79.5145 29.01 79.0285 28.716 78.2845 28.44C77.5405 28.164 76.4065 27.822 74.8825 27.414C73.2145 26.982 71.8885 26.52 70.9045 26.028C69.9325 25.524 69.2365 24.942 68.8165 24.282C68.4085 23.61 68.2045 22.8 68.2045 21.852C68.2045 20.676 68.5165 19.65 69.1405 18.774C69.7645 17.898 70.6405 17.22 71.7685 16.74C72.9085 16.26 74.2405 16.02 75.7645 16.02C77.2525 16.02 78.5785 16.254 79.7425 16.722C80.9065 17.19 81.8485 17.856 82.5685 18.72C83.2885 19.572 83.7205 20.574 83.8645 21.726L80.0125 22.428C79.8805 21.492 79.4425 20.754 78.6985 20.214C77.9545 19.674 76.9885 19.38 75.8005 19.332C74.6605 19.284 73.7365 19.476 73.0285 19.908C72.3205 20.328 71.9665 20.91 71.9665 21.654C71.9665 22.086 72.0985 22.452 72.3625 22.752C72.6385 23.052 73.1665 23.34 73.9465 23.616C74.7265 23.892 75.8785 24.222 77.4025 24.606C79.0345 25.026 80.3305 25.494 81.2905 26.01C82.2505 26.514 82.9345 27.12 83.3425 27.828C83.7625 28.524 83.9725 29.37 83.9725 30.366C83.9725 32.286 83.2705 33.792 81.8665 34.884C80.4745 35.976 78.5485 36.522 76.0885 36.522Z"
              fill="white"/>
        <circle cx="91" cy="33" r="3" fill="#FFCF45"/>
    </g>

    <g id="arrow-right">
        <path d="M6.06445 8.18945L9.18945 5.06445C9.31315 4.94727 9.375 4.80078 9.375 4.625C9.375 4.44922 9.31315 4.30273 9.18945 4.18555L6.06445 1.06055C5.94727 0.936849 5.80078 0.875 5.625 0.875C5.44922 0.875 5.30273 0.936849 5.18555 1.06055C5.06185 1.17773 5 1.32422 5 1.5C5 1.67578 5.06185 1.82227 5.18555 1.93945L7.23633 4H1.25C1.07422 4 0.924479 4.06185 0.800781 4.18555C0.683594 4.30273 0.625 4.44922 0.625 4.625C0.625 4.80078 0.683594 4.95052 0.800781 5.07422C0.924479 5.19141 1.07422 5.25 1.25 5.25H7.23633L5.18555 7.31055C5.12044 7.36914 5.07161 7.4375 5.03906 7.51562C5.01302 7.59375 5 7.67188 5 7.75C5 7.82812 5.01302 7.90625 5.03906 7.98438C5.07161 8.0625 5.12044 8.13086 5.18555 8.18945C5.30273 8.31315 5.44922 8.375 5.625 8.375C5.80078 8.375 5.94727 8.31315 6.06445 8.18945Z"
              fill="white"/>

    </g>

    <g id="about">
        <path d="M15.8 59.8H58.88L56.72 53.56H17.96L15.8 59.8ZM37.16 16L53.72 56.08L54.32 57.64L66.8 88H74.24L37.16 0.759993L0.0800001 88H7.52L20.12 57.16L20.84 55.72L37.16 16ZM85.7291 42.88H99.2891C104.009 42.88 108.169 42.2 111.769 40.84C115.369 39.4 118.169 37.32 120.169 34.6C122.249 31.8 123.289 28.36 123.289 24.28C123.289 20.92 122.729 18 121.609 15.52C120.489 12.96 118.849 10.84 116.689 9.16C114.529 7.48 111.929 6.2 108.889 5.32C105.929 4.44 102.569 3.99999 98.8091 3.99999H80.5691V88H100.009C105.449 88 110.249 87.12 114.409 85.36C118.649 83.6 121.969 80.92 124.369 77.32C126.769 73.72 127.969 69.16 127.969 63.64C127.969 59.8 127.169 56.48 125.569 53.68C124.049 50.8 121.969 48.44 119.329 46.6C116.769 44.76 113.849 43.4 110.569 42.52C107.289 41.56 103.929 41.08 100.489 41.08H85.7291V44.92H100.009C102.809 44.92 105.489 45.32 108.049 46.12C110.609 46.92 112.889 48.12 114.889 49.72C116.889 51.24 118.449 53.16 119.569 55.48C120.689 57.72 121.249 60.32 121.249 63.28C121.249 67.44 120.369 70.92 118.609 73.72C116.849 76.52 114.369 78.64 111.169 80.08C107.969 81.44 104.249 82.12 100.009 82.12H87.1691V9.88H98.8091C104.249 9.88 108.569 11.2 111.769 13.84C115.049 16.4 116.689 20 116.689 24.64C116.689 27.92 115.889 30.64 114.289 32.8C112.689 34.88 110.529 36.44 107.809 37.48C105.089 38.52 102.089 39.04 98.8091 39.04H85.7291V42.88ZM141.796 46C141.796 40.72 142.636 35.88 144.316 31.48C146.076 27 148.516 23.12 151.636 19.84C154.756 16.56 158.436 14.04 162.676 12.28C166.916 10.44 171.556 9.51999 176.596 9.51999C181.636 9.51999 186.276 10.44 190.516 12.28C194.756 14.04 198.396 16.56 201.436 19.84C204.556 23.12 206.956 27 208.636 31.48C210.396 35.88 211.276 40.72 211.276 46C211.276 51.28 210.396 56.16 208.636 60.64C206.956 65.04 204.556 68.88 201.436 72.16C198.396 75.44 194.756 78 190.516 79.84C186.276 81.6 181.636 82.48 176.596 82.48C171.556 82.48 166.916 81.6 162.676 79.84C158.436 78 154.756 75.44 151.636 72.16C148.516 68.88 146.076 65.04 144.316 60.64C142.636 56.16 141.796 51.28 141.796 46ZM134.836 46C134.836 52.16 135.876 57.88 137.956 63.16C140.036 68.36 142.956 72.92 146.716 76.84C150.476 80.68 154.876 83.68 159.916 85.84C165.036 88 170.596 89.08 176.596 89.08C182.596 89.08 188.116 88 193.156 85.84C198.276 83.68 202.716 80.68 206.476 76.84C210.236 72.92 213.156 68.36 215.236 63.16C217.316 57.88 218.356 52.16 218.356 46C218.356 39.84 217.316 34.16 215.236 28.96C213.156 23.68 210.236 19.12 206.476 15.28C202.716 11.36 198.276 8.32 193.156 6.16C188.116 3.99999 182.596 2.91999 176.596 2.91999C170.596 2.91999 165.036 3.99999 159.916 6.16C154.876 8.32 150.476 11.36 146.716 15.28C142.956 19.12 140.036 23.68 137.956 28.96C135.876 34.16 134.836 39.84 134.836 46ZM228.221 3.99999V60.88C228.221 65.04 228.821 68.88 230.021 72.4C231.221 75.84 232.981 78.84 235.301 81.4C237.621 83.88 240.421 85.8 243.701 87.16C247.061 88.52 250.861 89.2 255.101 89.2C259.341 89.2 263.101 88.52 266.381 87.16C269.741 85.8 272.581 83.88 274.901 81.4C277.221 78.84 278.981 75.84 280.181 72.4C281.381 68.88 281.981 65.04 281.981 60.88V3.99999H275.381V60.88C275.381 65.36 274.581 69.28 272.981 72.64C271.461 75.92 269.181 78.48 266.141 80.32C263.101 82.08 259.421 82.96 255.101 82.96C250.781 82.96 247.101 82.08 244.061 80.32C241.101 78.48 238.821 75.92 237.221 72.64C235.621 69.28 234.821 65.36 234.821 60.88V3.99999H228.221ZM288.394 10.24H310.474V88H317.074V10.24H339.154V3.99999H288.394V10.24Z"
              fill="#F8F8F8"/>
    </g>

    <g id="portfolio">
        <path d="M0.158919 1.99999V86H6.75892V1.99999H0.158919ZM3.87892 8.24H19.8389C23.9189 8.24 27.5189 8.96 30.6389 10.4C33.7589 11.76 36.1989 13.84 37.9589 16.64C39.7189 19.36 40.5989 22.76 40.5989 26.84C40.5989 30.84 39.7189 34.24 37.9589 37.04C36.1989 39.84 33.7589 41.96 30.6389 43.4C27.5189 44.76 23.9189 45.44 19.8389 45.44H3.87892V51.68H19.8389C25.1189 51.68 29.7989 50.68 33.8789 48.68C38.0389 46.68 41.3189 43.84 43.7189 40.16C46.1189 36.4 47.3189 31.96 47.3189 26.84C47.3189 21.64 46.1189 17.2 43.7189 13.52C41.3189 9.84 38.0389 7 33.8789 5C29.7989 3 25.1189 1.99999 19.8389 1.99999H3.87892V8.24ZM59.8627 44C59.8627 38.72 60.7027 33.88 62.3827 29.48C64.1427 25 66.5827 21.12 69.7027 17.84C72.8227 14.56 76.5027 12.04 80.7427 10.28C84.9827 8.43999 89.6227 7.51999 94.6627 7.51999C99.7027 7.51999 104.343 8.43999 108.583 10.28C112.823 12.04 116.463 14.56 119.503 17.84C122.623 21.12 125.023 25 126.703 29.48C128.463 33.88 129.343 38.72 129.343 44C129.343 49.28 128.463 54.16 126.703 58.64C125.023 63.04 122.623 66.88 119.503 70.16C116.463 73.44 112.823 76 108.583 77.84C104.343 79.6 99.7027 80.48 94.6627 80.48C89.6227 80.48 84.9827 79.6 80.7427 77.84C76.5027 76 72.8227 73.44 69.7027 70.16C66.5827 66.88 64.1427 63.04 62.3827 58.64C60.7027 54.16 59.8627 49.28 59.8627 44ZM52.9027 44C52.9027 50.16 53.9427 55.88 56.0227 61.16C58.1027 66.36 61.0227 70.92 64.7827 74.84C68.5427 78.68 72.9427 81.68 77.9827 83.84C83.1027 86 88.6627 87.08 94.6627 87.08C100.663 87.08 106.183 86 111.223 83.84C116.343 81.68 120.783 78.68 124.543 74.84C128.303 70.92 131.223 66.36 133.303 61.16C135.383 55.88 136.423 50.16 136.423 44C136.423 37.84 135.383 32.16 133.303 26.96C131.223 21.68 128.303 17.12 124.543 13.28C120.783 9.36 116.343 6.32 111.223 4.16C106.183 1.99999 100.663 0.919994 94.6627 0.919994C88.6627 0.919994 83.1027 1.99999 77.9827 4.16C72.9427 6.32 68.5427 9.36 64.7827 13.28C61.0227 17.12 58.1027 21.68 56.0227 26.96C53.9427 32.16 52.9027 37.84 52.9027 44ZM161.167 45.92L189.007 86H197.167L168.487 45.92H161.167ZM146.887 1.99999V86H153.487V1.99999H146.887ZM150.367 7.88H166.087C170.327 7.88 174.087 8.6 177.367 10.04C180.647 11.4 183.207 13.44 185.047 16.16C186.967 18.88 187.927 22.28 187.927 26.36C187.927 30.36 187.007 33.76 185.167 36.56C183.327 39.28 180.767 41.36 177.487 42.8C174.207 44.16 170.407 44.84 166.087 44.84H150.367V50.72H166.087C171.527 50.72 176.367 49.76 180.607 47.84C184.927 45.92 188.327 43.16 190.807 39.56C193.287 35.88 194.527 31.48 194.527 26.36C194.527 21.16 193.287 16.76 190.807 13.16C188.327 9.56 184.927 6.8 180.607 4.87999C176.367 2.95999 171.527 1.99999 166.087 1.99999H150.367V7.88ZM196.5 8.24H218.58V86H225.18V8.24H247.26V1.99999H196.5V8.24ZM257.72 8.24H294.56V1.99999H257.72V8.24ZM257.72 43.64H293.36V37.4H257.72V43.64ZM254.24 1.99999V86H260.84V1.99999H254.24ZM309.256 44C309.256 38.72 310.096 33.88 311.776 29.48C313.536 25 315.976 21.12 319.096 17.84C322.216 14.56 325.896 12.04 330.136 10.28C334.376 8.43999 339.016 7.51999 344.056 7.51999C349.096 7.51999 353.736 8.43999 357.976 10.28C362.216 12.04 365.856 14.56 368.896 17.84C372.016 21.12 374.416 25 376.096 29.48C377.856 33.88 378.736 38.72 378.736 44C378.736 49.28 377.856 54.16 376.096 58.64C374.416 63.04 372.016 66.88 368.896 70.16C365.856 73.44 362.216 76 357.976 77.84C353.736 79.6 349.096 80.48 344.056 80.48C339.016 80.48 334.376 79.6 330.136 77.84C325.896 76 322.216 73.44 319.096 70.16C315.976 66.88 313.536 63.04 311.776 58.64C310.096 54.16 309.256 49.28 309.256 44ZM302.296 44C302.296 50.16 303.336 55.88 305.416 61.16C307.496 66.36 310.416 70.92 314.176 74.84C317.936 78.68 322.336 81.68 327.376 83.84C332.496 86 338.056 87.08 344.056 87.08C350.056 87.08 355.576 86 360.616 83.84C365.736 81.68 370.176 78.68 373.936 74.84C377.696 70.92 380.616 66.36 382.696 61.16C384.776 55.88 385.816 50.16 385.816 44C385.816 37.84 384.776 32.16 382.696 26.96C380.616 21.68 377.696 17.12 373.936 13.28C370.176 9.36 365.736 6.32 360.616 4.16C355.576 1.99999 350.056 0.919994 344.056 0.919994C338.056 0.919994 332.496 1.99999 327.376 4.16C322.336 6.32 317.936 9.36 314.176 13.28C310.416 17.12 307.496 21.68 305.416 26.96C303.336 32.16 302.296 37.84 302.296 44ZM396.281 1.99999V86H437.561V79.76H402.881V1.99999H396.281ZM444.327 1.99999V86H450.927V1.99999H444.327ZM468.177 44C468.177 38.72 469.017 33.88 470.697 29.48C472.457 25 474.897 21.12 478.017 17.84C481.137 14.56 484.817 12.04 489.057 10.28C493.297 8.43999 497.937 7.51999 502.977 7.51999C508.017 7.51999 512.657 8.43999 516.897 10.28C521.137 12.04 524.777 14.56 527.817 17.84C530.937 21.12 533.337 25 535.017 29.48C536.777 33.88 537.657 38.72 537.657 44C537.657 49.28 536.777 54.16 535.017 58.64C533.337 63.04 530.937 66.88 527.817 70.16C524.777 73.44 521.137 76 516.897 77.84C512.657 79.6 508.017 80.48 502.977 80.48C497.937 80.48 493.297 79.6 489.057 77.84C484.817 76 481.137 73.44 478.017 70.16C474.897 66.88 472.457 63.04 470.697 58.64C469.017 54.16 468.177 49.28 468.177 44ZM461.217 44C461.217 50.16 462.257 55.88 464.337 61.16C466.417 66.36 469.337 70.92 473.097 74.84C476.857 78.68 481.257 81.68 486.297 83.84C491.417 86 496.977 87.08 502.977 87.08C508.977 87.08 514.497 86 519.537 83.84C524.657 81.68 529.097 78.68 532.857 74.84C536.617 70.92 539.537 66.36 541.617 61.16C543.697 55.88 544.737 50.16 544.737 44C544.737 37.84 543.697 32.16 541.617 26.96C539.537 21.68 536.617 17.12 532.857 13.28C529.097 9.36 524.657 6.32 519.537 4.16C514.497 1.99999 508.977 0.919994 502.977 0.919994C496.977 0.919994 491.417 1.99999 486.297 4.16C481.257 6.32 476.857 9.36 473.097 13.28C469.337 17.12 466.417 21.68 464.337 26.96C462.257 32.16 461.217 37.84 461.217 44Z"
              fill="#F8F8F8"/>

    </g>

    <g id="achievement">
        <path d="M15.8195 59.8H58.8995L56.7395 53.56H17.9795L15.8195 59.8ZM37.1795 16L53.7395 56.08L54.3395 57.64L66.8195 88H74.2595L37.1795 0.759993L0.0995313 88H7.53953L20.1395 57.16L20.8595 55.72L37.1795 16ZM79.2358 46C79.2358 40.64 80.1158 35.76 81.8758 31.36C83.6358 26.88 86.0358 23.04 89.0758 19.84C92.1958 16.56 95.7958 14.04 99.8758 12.28C104.036 10.52 108.476 9.63999 113.196 9.63999C117.116 9.63999 120.716 10.08 123.996 10.96C127.276 11.84 130.276 13.16 132.996 14.92C135.716 16.6 138.116 18.64 140.196 21.04V12.28C136.676 9.16 132.836 6.84 128.676 5.32C124.516 3.72 119.356 2.91999 113.196 2.91999C107.356 2.91999 101.956 3.99999 96.9958 6.16C92.0358 8.24 87.6758 11.2 83.9158 15.04C80.2358 18.88 77.3558 23.44 75.2758 28.72C73.1958 34 72.1558 39.76 72.1558 46C72.1558 52.24 73.1958 58 75.2758 63.28C77.3558 68.56 80.2358 73.12 83.9158 76.96C87.6758 80.8 92.0358 83.8 96.9958 85.96C101.956 88.04 107.356 89.08 113.196 89.08C119.356 89.08 124.516 88.32 128.676 86.8C132.836 85.2 136.676 82.84 140.196 79.72V70.84C138.116 73.24 135.716 75.32 132.996 77.08C130.356 78.76 127.396 80.08 124.116 81.04C120.836 81.92 117.196 82.36 113.196 82.36C108.476 82.36 104.036 81.48 99.8758 79.72C95.7958 77.96 92.1958 75.48 89.0758 72.28C86.0358 69 83.6358 65.16 81.8758 60.76C80.1158 56.28 79.2358 51.36 79.2358 46ZM157.784 45.4H214.424V39.16H157.784V45.4ZM209.984 3.99999V88H216.704V3.99999H209.984ZM154.304 3.99999V88H160.904V3.99999H154.304ZM231.647 3.99999V88H238.247V3.99999H231.647ZM256.817 88H298.457V81.76H256.817V88ZM256.817 10.24H298.457V3.99999H256.817V10.24ZM256.817 45.04H296.057V38.8H256.817V45.04ZM253.337 3.99999V88H259.937V3.99999H253.337ZM340.719 75.88L311.079 3.99999H303.639L340.719 91.24L377.799 3.99999H370.359L340.719 75.88ZM387.608 88H429.248V81.76H387.608V88ZM387.608 10.24H429.248V3.99999H387.608V10.24ZM387.608 45.04H426.848V38.8H387.608V45.04ZM384.128 3.99999V88H390.728V3.99999H384.128ZM452.909 21.52L482.429 78.28L511.949 21.52L519.149 88H525.749L516.029 0.759993L482.429 65.32L448.829 0.759993L439.109 88H445.709L452.909 21.52ZM540.312 88H581.952V81.76H540.312V88ZM540.312 10.24H581.952V3.99999H540.312V10.24ZM540.312 45.04H579.552V38.8H540.312V45.04ZM536.832 3.99999V88H543.432V3.99999H536.832ZM659.974 3.99999V74.32L596.134 0.759993V88H602.734V17.92L666.574 91.24V3.99999H659.974ZM673.52 10.24H695.6V88H702.2V10.24H724.28V3.99999H673.52V10.24Z"
              fill="#F8F8F8"/>
    </g>

    <g id="blogs">
        <path d="M5.43376 40.88H18.9938C23.7138 40.88 27.8738 40.2 31.4738 38.84C35.0738 37.4 37.8738 35.32 39.8738 32.6C41.9538 29.8 42.9938 26.36 42.9938 22.28C42.9938 18.92 42.4338 16 41.3138 13.52C40.1938 10.96 38.5538 8.84 36.3938 7.16C34.2338 5.48 31.6338 4.2 28.5938 3.32C25.6338 2.44 22.2738 1.99999 18.5138 1.99999H0.273757V86H19.7138C25.1538 86 29.9538 85.12 34.1138 83.36C38.3538 81.6 41.6738 78.92 44.0738 75.32C46.4738 71.72 47.6738 67.16 47.6738 61.64C47.6738 57.8 46.8738 54.48 45.2738 51.68C43.7538 48.8 41.6738 46.44 39.0338 44.6C36.4738 42.76 33.5538 41.4 30.2738 40.52C26.9938 39.56 23.6338 39.08 20.1938 39.08H5.43376V42.92H19.7138C22.5138 42.92 25.1938 43.32 27.7538 44.12C30.3138 44.92 32.5938 46.12 34.5938 47.72C36.5938 49.24 38.1538 51.16 39.2738 53.48C40.3938 55.72 40.9538 58.32 40.9538 61.28C40.9538 65.44 40.0738 68.92 38.3138 71.72C36.5538 74.52 34.0738 76.64 30.8738 78.08C27.6738 79.44 23.9538 80.12 19.7138 80.12H6.87376V7.88H18.5138C23.9538 7.88 28.2738 9.2 31.4738 11.84C34.7538 14.4 36.3938 18 36.3938 22.64C36.3938 25.92 35.5938 28.64 33.9938 30.8C32.3938 32.88 30.2338 34.44 27.5138 35.48C24.7938 36.52 21.7938 37.04 18.5138 37.04H5.43376V40.88ZM59.3409 1.99999V86H100.621V79.76H65.9409V1.99999H59.3409ZM106.154 44C106.154 38.72 106.994 33.88 108.674 29.48C110.434 25 112.874 21.12 115.994 17.84C119.114 14.56 122.794 12.04 127.034 10.28C131.274 8.43999 135.914 7.51999 140.954 7.51999C145.994 7.51999 150.634 8.43999 154.874 10.28C159.114 12.04 162.754 14.56 165.794 17.84C168.914 21.12 171.314 25 172.994 29.48C174.754 33.88 175.634 38.72 175.634 44C175.634 49.28 174.754 54.16 172.994 58.64C171.314 63.04 168.914 66.88 165.794 70.16C162.754 73.44 159.114 76 154.874 77.84C150.634 79.6 145.994 80.48 140.954 80.48C135.914 80.48 131.274 79.6 127.034 77.84C122.794 76 119.114 73.44 115.994 70.16C112.874 66.88 110.434 63.04 108.674 58.64C106.994 54.16 106.154 49.28 106.154 44ZM99.1941 44C99.1941 50.16 100.234 55.88 102.314 61.16C104.394 66.36 107.314 70.92 111.074 74.84C114.834 78.68 119.234 81.68 124.274 83.84C129.394 86 134.954 87.08 140.954 87.08C146.954 87.08 152.474 86 157.514 83.84C162.634 81.68 167.074 78.68 170.834 74.84C174.594 70.92 177.514 66.36 179.594 61.16C181.674 55.88 182.714 50.16 182.714 44C182.714 37.84 181.674 32.16 179.594 26.96C177.514 21.68 174.594 17.12 170.834 13.28C167.074 9.36 162.634 6.32 157.514 4.16C152.474 1.99999 146.954 0.919994 140.954 0.919994C134.954 0.919994 129.394 1.99999 124.274 4.16C119.234 6.32 114.834 9.36 111.074 13.28C107.314 17.12 104.394 21.68 102.314 26.96C100.234 32.16 99.1941 37.84 99.1941 44ZM232.418 50.36H262.538C262.058 54.44 260.978 58.28 259.298 61.88C257.698 65.48 255.498 68.68 252.698 71.48C249.978 74.28 246.738 76.48 242.978 78.08C239.218 79.68 234.978 80.48 230.258 80.48C225.298 80.48 220.698 79.6 216.458 77.84C212.218 76 208.498 73.48 205.298 70.28C202.178 67 199.738 63.16 197.978 58.76C196.218 54.28 195.338 49.36 195.338 44C195.338 38.64 196.218 33.72 197.978 29.24C199.738 24.76 202.178 20.92 205.298 17.72C208.498 14.44 212.218 11.92 216.458 10.16C220.698 8.4 225.298 7.51999 230.258 7.51999C237.058 7.51999 242.978 8.96 248.018 11.84C253.138 14.64 257.058 18.4 259.778 23.12L264.578 18.92C262.178 15.16 259.298 11.96 255.938 9.31999C252.578 6.59999 248.738 4.52 244.418 3.07999C240.178 1.63999 235.458 0.919994 230.258 0.919994C224.258 0.919994 218.698 1.99999 213.578 4.16C208.538 6.24 204.098 9.2 200.258 13.04C196.498 16.88 193.578 21.44 191.498 26.72C189.418 32 188.378 37.76 188.378 44C188.378 50.24 189.418 56 191.498 61.28C193.578 66.56 196.498 71.12 200.258 74.96C204.098 78.8 208.538 81.8 213.578 83.96C218.698 86.04 224.258 87.08 230.258 87.08C236.418 87.08 241.938 85.92 246.818 83.6C251.698 81.28 255.818 78.12 259.178 74.12C262.618 70.12 265.218 65.56 266.978 60.44C268.818 55.24 269.738 49.8 269.738 44.12H232.418V50.36ZM281.557 61.76L276.157 65.12C277.517 69.04 279.437 72.68 281.917 76.04C284.397 79.32 287.477 82 291.157 84.08C294.917 86.08 299.197 87.08 303.997 87.08C307.437 87.08 310.637 86.56 313.597 85.52C316.557 84.4 319.117 82.84 321.277 80.84C323.517 78.76 325.237 76.32 326.437 73.52C327.717 70.72 328.357 67.6 328.357 64.16C328.357 60.48 327.717 57.28 326.437 54.56C325.157 51.84 323.477 49.56 321.397 47.72C319.317 45.8 317.037 44.2 314.557 42.92C312.157 41.56 309.797 40.48 307.477 39.68C304.117 38.48 301.157 37.24 298.597 35.96C296.037 34.68 293.877 33.28 292.117 31.76C290.437 30.24 289.157 28.56 288.277 26.72C287.477 24.88 287.077 22.8 287.077 20.48C287.077 17.92 287.637 15.68 288.757 13.76C289.957 11.76 291.677 10.2 293.917 9.08C296.237 7.88 299.037 7.28 302.317 7.28C305.997 7.28 309.077 8 311.557 9.44C314.037 10.8 316.077 12.52 317.677 14.6C319.277 16.68 320.557 18.8 321.517 20.96L327.277 17.72C326.157 15 324.517 12.36 322.357 9.79999C320.197 7.23999 317.477 5.11999 314.197 3.44C310.997 1.75999 307.157 0.919994 302.677 0.919994C298.277 0.919994 294.357 1.79999 290.917 3.56C287.557 5.24 284.917 7.6 282.997 10.64C281.077 13.68 280.117 17.24 280.117 21.32C280.117 24.92 280.797 28 282.157 30.56C283.597 33.12 285.437 35.32 287.677 37.16C289.917 38.92 292.317 40.44 294.877 41.72C297.517 42.92 300.037 43.96 302.437 44.84C305.637 46.04 308.677 47.44 311.557 49.04C314.517 50.56 316.917 52.56 318.757 55.04C320.597 57.52 321.517 60.8 321.517 64.88C321.517 67.92 320.797 70.68 319.357 73.16C317.997 75.56 315.997 77.44 313.357 78.8C310.797 80.16 307.717 80.84 304.117 80.84C300.037 80.84 296.557 80 293.677 78.32C290.797 76.64 288.397 74.36 286.477 71.48C284.557 68.52 282.917 65.28 281.557 61.76Z"
              fill="#F8F8F8"/>
    </g>

    <g id="testimonials">
        <path d="M0.134681 10.24H22.2147V88H28.8147V10.24H50.8947V3.99999H0.134681V10.24ZM61.3553 88H102.995V81.76H61.3553V88ZM61.3553 10.24H102.995V3.99999H61.3553V10.24ZM61.3553 45.04H100.595V38.8H61.3553V45.04ZM57.8753 3.99999V88H64.4753V3.99999H57.8753ZM117.777 63.76L112.377 67.12C113.737 71.04 115.657 74.68 118.137 78.04C120.617 81.32 123.697 84 127.377 86.08C131.137 88.08 135.417 89.08 140.217 89.08C143.657 89.08 146.857 88.56 149.817 87.52C152.777 86.4 155.337 84.84 157.497 82.84C159.737 80.76 161.457 78.32 162.657 75.52C163.937 72.72 164.577 69.6 164.577 66.16C164.577 62.48 163.937 59.28 162.657 56.56C161.377 53.84 159.697 51.56 157.617 49.72C155.537 47.8 153.257 46.2 150.777 44.92C148.377 43.56 146.017 42.48 143.697 41.68C140.337 40.48 137.377 39.24 134.817 37.96C132.257 36.68 130.097 35.28 128.337 33.76C126.657 32.24 125.377 30.56 124.497 28.72C123.697 26.88 123.297 24.8 123.297 22.48C123.297 19.92 123.857 17.68 124.977 15.76C126.177 13.76 127.897 12.2 130.137 11.08C132.457 9.88 135.257 9.28 138.537 9.28C142.217 9.28 145.297 10 147.777 11.44C150.257 12.8 152.297 14.52 153.897 16.6C155.497 18.68 156.777 20.8 157.737 22.96L163.497 19.72C162.377 17 160.737 14.36 158.577 11.8C156.417 9.23999 153.697 7.11999 150.417 5.44C147.217 3.75999 143.377 2.91999 138.897 2.91999C134.497 2.91999 130.577 3.79999 127.137 5.56C123.777 7.24 121.137 9.6 119.217 12.64C117.297 15.68 116.337 19.24 116.337 23.32C116.337 26.92 117.017 30 118.377 32.56C119.817 35.12 121.657 37.32 123.897 39.16C126.137 40.92 128.537 42.44 131.097 43.72C133.737 44.92 136.257 45.96 138.657 46.84C141.857 48.04 144.897 49.44 147.777 51.04C150.737 52.56 153.137 54.56 154.977 57.04C156.817 59.52 157.737 62.8 157.737 66.88C157.737 69.92 157.017 72.68 155.577 75.16C154.217 77.56 152.217 79.44 149.577 80.8C147.017 82.16 143.937 82.84 140.337 82.84C136.257 82.84 132.777 82 129.897 80.32C127.017 78.64 124.617 76.36 122.697 73.48C120.777 70.52 119.137 67.28 117.777 63.76ZM166.907 10.24H188.987V88H195.587V10.24H217.667V3.99999H166.907V10.24ZM224.407 3.99999V88H231.007V3.99999H224.407ZM255.577 21.52L285.097 78.28L314.617 21.52L321.817 88H328.417L318.697 0.759993L285.097 65.32L251.497 0.759993L241.777 88H248.377L255.577 21.52ZM341.66 46C341.66 40.72 342.5 35.88 344.18 31.48C345.94 27 348.38 23.12 351.5 19.84C354.62 16.56 358.3 14.04 362.54 12.28C366.78 10.44 371.42 9.51999 376.46 9.51999C381.5 9.51999 386.14 10.44 390.38 12.28C394.62 14.04 398.26 16.56 401.3 19.84C404.42 23.12 406.82 27 408.5 31.48C410.26 35.88 411.14 40.72 411.14 46C411.14 51.28 410.26 56.16 408.5 60.64C406.82 65.04 404.42 68.88 401.3 72.16C398.26 75.44 394.62 78 390.38 79.84C386.14 81.6 381.5 82.48 376.46 82.48C371.42 82.48 366.78 81.6 362.54 79.84C358.3 78 354.62 75.44 351.5 72.16C348.38 68.88 345.94 65.04 344.18 60.64C342.5 56.16 341.66 51.28 341.66 46ZM334.7 46C334.7 52.16 335.74 57.88 337.82 63.16C339.9 68.36 342.82 72.92 346.58 76.84C350.34 80.68 354.74 83.68 359.78 85.84C364.9 88 370.46 89.08 376.46 89.08C382.46 89.08 387.98 88 393.02 85.84C398.14 83.68 402.58 80.68 406.34 76.84C410.1 72.92 413.02 68.36 415.1 63.16C417.18 57.88 418.22 52.16 418.22 46C418.22 39.84 417.18 34.16 415.1 28.96C413.02 23.68 410.1 19.12 406.34 15.28C402.58 11.36 398.14 8.32 393.02 6.16C387.98 3.99999 382.46 2.91999 376.46 2.91999C370.46 2.91999 364.9 3.99999 359.78 6.16C354.74 8.32 350.34 11.36 346.58 15.28C342.82 19.12 339.9 23.68 337.82 28.96C335.74 34.16 334.7 39.84 334.7 46ZM492.525 3.99999V74.32L428.685 0.759993V88H435.285V17.92L499.125 91.24V3.99999H492.525ZM514.231 3.99999V88H520.831V3.99999H514.231ZM542.641 59.8H585.721L583.561 53.56H544.801L542.641 59.8ZM564.001 16L580.561 56.08L581.161 57.64L593.641 88H601.081L564.001 0.759993L526.921 88H534.361L546.961 57.16L547.681 55.72L564.001 16ZM607.41 3.99999V88H648.69V81.76H614.01V3.99999H607.41ZM656.296 63.76L650.896 67.12C652.256 71.04 654.176 74.68 656.656 78.04C659.136 81.32 662.216 84 665.896 86.08C669.656 88.08 673.936 89.08 678.736 89.08C682.176 89.08 685.376 88.56 688.336 87.52C691.296 86.4 693.856 84.84 696.016 82.84C698.256 80.76 699.976 78.32 701.176 75.52C702.456 72.72 703.096 69.6 703.096 66.16C703.096 62.48 702.456 59.28 701.176 56.56C699.896 53.84 698.216 51.56 696.136 49.72C694.056 47.8 691.776 46.2 689.296 44.92C686.896 43.56 684.536 42.48 682.216 41.68C678.856 40.48 675.896 39.24 673.336 37.96C670.776 36.68 668.616 35.28 666.856 33.76C665.176 32.24 663.896 30.56 663.016 28.72C662.216 26.88 661.816 24.8 661.816 22.48C661.816 19.92 662.376 17.68 663.496 15.76C664.696 13.76 666.416 12.2 668.656 11.08C670.976 9.88 673.776 9.28 677.056 9.28C680.736 9.28 683.816 10 686.296 11.44C688.776 12.8 690.816 14.52 692.416 16.6C694.016 18.68 695.296 20.8 696.256 22.96L702.016 19.72C700.896 17 699.256 14.36 697.096 11.8C694.936 9.23999 692.216 7.11999 688.936 5.44C685.736 3.75999 681.896 2.91999 677.416 2.91999C673.016 2.91999 669.096 3.79999 665.656 5.56C662.296 7.24 659.656 9.6 657.736 12.64C655.816 15.68 654.856 19.24 654.856 23.32C654.856 26.92 655.536 30 656.896 32.56C658.336 35.12 660.176 37.32 662.416 39.16C664.656 40.92 667.056 42.44 669.616 43.72C672.256 44.92 674.776 45.96 677.176 46.84C680.376 48.04 683.416 49.44 686.296 51.04C689.256 52.56 691.656 54.56 693.496 57.04C695.336 59.52 696.256 62.8 696.256 66.88C696.256 69.92 695.536 72.68 694.096 75.16C692.736 77.56 690.736 79.44 688.096 80.8C685.536 82.16 682.456 82.84 678.856 82.84C674.776 82.84 671.296 82 668.416 80.32C665.536 78.64 663.136 76.36 661.216 73.48C659.296 70.52 657.656 67.28 656.296 63.76Z"
              fill="#333333"/>
    </g>

    <g id="footerDunno">
        <path d="M1.96875 2.46777C3.28125 1.15527 4.875 0.499023 6.75 0.499023C8.625 0.499023 10.2188 1.15527 11.5312 2.46777C12.8438 3.78027 13.5 5.37402 13.5 7.24902C13.5 9.12402 12.8438 10.7178 11.5312 12.0303C10.2188 13.3428 8.625 13.999 6.75 13.999C4.875 13.999 3.28125 13.3428 1.96875 12.0303C0.65625 10.7178 0 9.12402 0 7.24902C0 5.37402 0.65625 3.78027 1.96875 2.46777ZM11.0391 3.59277C10.4531 4.45996 9.45703 5.20996 8.05078 5.84277C8.19141 6.14746 8.34375 6.51074 8.50781 6.93262C9.82031 6.81543 11.1094 6.79199 12.375 6.8623C12.3047 5.62012 11.8594 4.53027 11.0391 3.59277ZM6.75 1.62402C6.35156 1.62402 5.89453 1.68262 5.37891 1.7998C6.08203 2.50293 6.80859 3.52246 7.55859 4.8584C8.82422 4.34277 9.75 3.69824 10.3359 2.9248C9.28125 2.05762 8.08594 1.62402 6.75 1.62402ZM4.21875 2.25684C2.71875 3.03027 1.74609 4.2373 1.30078 5.87793H2.17969C3.70312 5.87793 5.12109 5.67871 6.43359 5.28027C5.75391 4.06152 5.01562 3.05371 4.21875 2.25684ZM1.125 6.96777V7.24902C1.125 8.67871 1.59375 9.9209 2.53125 10.9756C3.42188 9.31152 4.85156 8.06934 6.82031 7.24902C6.9375 7.20215 7.10156 7.15527 7.3125 7.1084C7.17188 6.7334 7.05469 6.45215 6.96094 6.26465C5.55469 6.70996 3.9375 6.95605 2.10938 7.00293C2.01562 7.00293 1.85156 7.00293 1.61719 7.00293C1.38281 6.97949 1.21875 6.96777 1.125 6.96777ZM6.75 12.874C7.47656 12.874 8.14453 12.7568 8.75391 12.5225C8.63672 11.5381 8.46094 10.6123 8.22656 9.74512C8.13281 9.34668 7.94531 8.77246 7.66406 8.02246C7.38281 8.09277 7.18359 8.16309 7.06641 8.2334C5.30859 9.03027 4.05469 10.1787 3.30469 11.6787C4.33594 12.4756 5.48438 12.874 6.75 12.874ZM9.77344 11.96C11.3203 10.9521 12.1758 9.59277 12.3398 7.88184C10.957 7.78809 9.79688 7.78809 8.85938 7.88184C9.11719 8.6084 9.25781 9.05371 9.28125 9.21777C9.49219 10.0381 9.65625 10.9521 9.77344 11.96Z"
              fill="#8C8C8C"/>
    </g>

    <g id="footerFB">
        <path d="M4.5 4.99902H6.75L6.46875 7.24902H4.5V13.999H1.58203V7.24902H0V4.99902H1.58203V3.4873C1.58203 2.50293 1.82812 1.76465 2.32031 1.27246C2.8125 0.756836 3.63281 0.499023 4.78125 0.499023H6.75V2.74902H5.55469C5.10938 2.74902 4.81641 2.81934 4.67578 2.95996C4.55859 3.10059 4.5 3.33496 4.5 3.66309V4.99902Z"
              fill="#8C8C8C"/>
    </g>

    <g id="footerLinkedIn">
        <path d="M12.4102 0.499023C12.7148 0.499023 12.9727 0.604492 13.1836 0.81543C13.3945 1.00293 13.5 1.24902 13.5 1.55371V12.8389C13.5 13.1436 13.3945 13.4131 13.1836 13.6475C12.9727 13.8818 12.7148 13.999 12.4102 13.999H1.16016C0.855469 13.999 0.585938 13.8818 0.351562 13.6475C0.117188 13.4131 0 13.1436 0 12.8389V1.55371C0 1.24902 0.105469 1.00293 0.316406 0.81543C0.550781 0.604492 0.832031 0.499023 1.16016 0.499023H12.4102ZM4.18359 11.749V5.7373H2.25V11.749H4.18359ZM2.53125 4.54199C2.71875 4.72949 2.96484 4.82324 3.26953 4.82324C3.57422 4.82324 3.82031 4.72949 4.00781 4.54199C4.21875 4.33105 4.32422 4.08496 4.32422 3.80371C4.32422 3.49902 4.23047 3.25293 4.04297 3.06543C3.85547 2.85449 3.60938 2.74902 3.30469 2.74902C3 2.74902 2.74219 2.85449 2.53125 3.06543C2.34375 3.25293 2.25 3.49902 2.25 3.80371C2.25 4.08496 2.34375 4.33105 2.53125 4.54199ZM11.25 11.749V8.2334C11.25 7.36621 11.0391 6.70996 10.6172 6.26465C10.2188 5.81934 9.69141 5.59668 9.03516 5.59668C8.33203 5.59668 7.74609 5.9248 7.27734 6.58105V5.7373H5.34375V11.749H7.27734V8.33887C7.27734 8.10449 7.30078 7.94043 7.34766 7.84668C7.53516 7.37793 7.86328 7.14355 8.33203 7.14355C8.98828 7.14355 9.31641 7.57715 9.31641 8.44434V11.749H11.25Z"
              fill="#8C8C8C"/>
    </g>

    <g id="footerTwitter">
        <path d="M16.5938 2.11621C16.1719 2.77246 15.6094 3.3584 14.9062 3.87402V4.2959C14.9062 6.75684 14.0156 8.99512 12.2344 11.0107C10.4766 13.0029 8.13281 13.999 5.20312 13.999C3.32812 13.999 1.59375 13.4834 0 12.4521C0.375 12.499 0.644531 12.5225 0.808594 12.5225C2.37891 12.5225 3.78516 12.0303 5.02734 11.0459C4.30078 11.0225 3.64453 10.7998 3.05859 10.3779C2.47266 9.93262 2.07422 9.37012 1.86328 8.69043C2.14453 8.7373 2.35547 8.76074 2.49609 8.76074C2.73047 8.76074 3.03516 8.71387 3.41016 8.62012C2.63672 8.45605 1.98047 8.06934 1.44141 7.45996C0.925781 6.82715 0.667969 6.10059 0.667969 5.28027V5.24512C1.18359 5.52637 1.69922 5.66699 2.21484 5.66699C1.20703 5.01074 0.703125 4.06152 0.703125 2.81934C0.703125 2.2334 0.855469 1.6709 1.16016 1.13184C2.96484 3.3584 5.29688 4.54199 8.15625 4.68262C8.10938 4.51855 8.08594 4.26074 8.08594 3.90918C8.08594 2.94824 8.41406 2.13965 9.07031 1.4834C9.72656 0.827148 10.5352 0.499023 11.4961 0.499023C12.457 0.499023 13.2773 0.862305 13.957 1.58887C14.6602 1.47168 15.3867 1.19043 16.1367 0.745117C15.9023 1.56543 15.3984 2.19824 14.625 2.64355C15.3516 2.57324 16.0078 2.39746 16.5938 2.11621Z"
              fill="#8C8C8C"/>

    </g>

    <g id="footerYoutube">
        <path d="M17.8945 3.4873C17.9648 4.75293 18 6.00684 18 7.24902C18 8.49121 17.9648 9.74512 17.8945 11.0107C17.8945 11.8076 17.6367 12.4873 17.1211 13.0498C16.6289 13.5889 16.0195 13.8584 15.293 13.8584C13.4883 13.9521 11.3906 13.999 9 13.999C6.60938 13.999 4.51172 13.9521 2.70703 13.8584C1.98047 13.8584 1.35938 13.5889 0.84375 13.0498C0.351562 12.4873 0.105469 11.8076 0.105469 11.0107C0.0351562 9.74512 0 8.49121 0 7.24902C0 6.42871 0.046875 5.1748 0.140625 3.4873C0.140625 2.69043 0.386719 2.02246 0.878906 1.4834C1.37109 0.920898 1.98047 0.639648 2.70703 0.639648C4.41797 0.545898 6.41016 0.499023 8.68359 0.499023H9H9.31641C11.5898 0.499023 13.582 0.545898 15.293 0.639648C16.0195 0.639648 16.6289 0.920898 17.1211 1.4834C17.6367 2.02246 17.8945 2.69043 17.8945 3.4873ZM7.27734 10.6943L12.375 7.24902L7.27734 3.76855V10.6943Z"
              fill="#8C8C8C"/>
    </g>


</svg>
