<svg width="32" height="21" viewBox="0 0 32 21" fill="none" xmlns="http://www.w3.org/2000/svg">

    <g id="burgerMenu">
        <rect x="5" width="27" height="3" fill="white"/>
        <rect y="9" width="32" height="3" fill="white"/>
        <rect x="3" y="18" width="29" height="3" fill="white"/>
    </g>

    <g id="logo">
        <path d="M13.338 36.54C16.326 36.54 18.798 35.784 20.754 34.272C22.722 32.76 24.09 30.726 24.858 28.17L21.042 27.144C20.526 28.956 19.626 30.378 18.342 31.41C17.058 32.442 15.39 32.958 13.338 32.958C11.502 32.958 9.966 32.544 8.73 31.716C7.506 30.888 6.582 29.73 5.958 28.242C5.346 26.754 5.046 25.02 5.058 23.04C5.07 21.06 5.382 19.326 5.994 17.838C6.606 16.35 7.524 15.192 8.748 14.364C9.972 13.536 11.502 13.122 13.338 13.122C15.39 13.122 17.058 13.638 18.342 14.67C19.626 15.702 20.526 17.124 21.042 18.936L24.858 17.91C24.09 15.354 22.722 13.32 20.754 11.808C18.798 10.296 16.326 9.54 13.338 9.54C10.746 9.54 8.538 10.11 6.714 11.25C4.89 12.39 3.492 13.974 2.52 16.002C1.56 18.018 1.08 20.364 1.08 23.04C1.08 25.716 1.56 28.068 2.52 30.096C3.492 32.112 4.89 33.69 6.714 34.83C8.538 35.97 10.746 36.54 13.338 36.54ZM27.3589 36H31.1749V25.884C31.1749 24.348 31.3969 23.124 31.8409 22.212C32.2969 21.288 32.8969 20.622 33.6409 20.214C34.3849 19.806 35.2069 19.602 36.1069 19.602C37.1389 19.602 37.9789 19.812 38.6269 20.232C39.2749 20.652 39.7729 21.204 40.1209 21.888C40.4689 22.572 40.7029 23.316 40.8229 24.12C40.9549 24.912 41.0209 25.686 41.0209 26.442V36H44.8369V25.2C44.8369 24.6 44.7829 23.904 44.6749 23.112C44.5669 22.32 44.3629 21.51 44.0629 20.682C43.7629 19.854 43.3249 19.092 42.7489 18.396C42.1849 17.688 41.4469 17.118 40.5349 16.686C39.6229 16.254 38.4949 16.038 37.1509 16.038C35.7469 16.038 34.4989 16.29 33.4069 16.794C32.3269 17.298 31.4329 17.994 30.7249 18.882V10.08H27.3589V36ZM48.0853 36H51.8833V26.19C51.8833 25.05 52.0633 23.994 52.4233 23.022C52.7833 22.05 53.4193 21.27 54.3313 20.682C54.9793 20.262 55.6933 20.016 56.4733 19.944C57.2533 19.872 57.9553 19.92 58.5793 20.088V16.56C57.7033 16.392 56.7733 16.398 55.7893 16.578C54.8173 16.758 53.9653 17.118 53.2333 17.658C52.5133 18.138 51.9133 18.804 51.4333 19.656V16.56H48.0853V36ZM60.9272 13.374H64.6892V9.72H60.9272V13.374ZM60.9272 36H64.6892V16.56H60.9272V36ZM76.0885 36.522C78.5485 36.522 80.4745 35.976 81.8665 34.884C83.2705 33.792 83.9725 32.286 83.9725 30.366C83.9725 29.358 83.7625 28.506 83.3425 27.81C82.9345 27.114 82.2505 26.514 81.2905 26.01C80.3305 25.494 79.0345 25.026 77.4025 24.606C75.8785 24.222 74.7265 23.892 73.9465 23.616C73.1785 23.328 72.6565 23.04 72.3805 22.752C72.1045 22.452 71.9665 22.086 71.9665 21.654C71.9665 20.91 72.3205 20.328 73.0285 19.908C73.7365 19.476 74.6605 19.284 75.8005 19.332C76.9885 19.38 77.9545 19.68 78.6985 20.232C79.4425 20.772 79.8805 21.504 80.0125 22.428L83.8645 21.726C83.6485 19.998 82.8025 18.618 81.3265 17.586C79.8505 16.542 77.9965 16.02 75.7645 16.02C73.4845 16.02 71.6545 16.554 70.2745 17.622C68.8945 18.678 68.2045 20.088 68.2045 21.852C68.2045 22.8 68.4085 23.61 68.8165 24.282C69.2365 24.942 69.9325 25.518 70.9045 26.01C71.8885 26.502 73.2145 26.97 74.8825 27.414C76.4065 27.822 77.5405 28.164 78.2845 28.44C79.0285 28.716 79.5145 29.01 79.7425 29.322C79.9825 29.622 80.1025 30.018 80.1025 30.51C80.1025 31.35 79.7665 32.01 79.0945 32.49C78.4345 32.97 77.5165 33.21 76.3405 33.21C75.0445 33.21 73.9585 32.922 73.0825 32.346C72.2185 31.77 71.6665 30.972 71.4265 29.952L67.5745 30.546C67.9105 32.442 68.8225 33.912 70.3105 34.956C71.7985 36 73.7245 36.522 76.0885 36.522Z"
              fill="white"/>
        <circle cx="91" cy="33" r="3" fill="#FFCF45"/>
    </g>

    <g id="footerDunno">
        <path d="M1.96875 2.46777C3.28125 1.15527 4.875 0.499023 6.75 0.499023C8.625 0.499023 10.2188 1.15527 11.5312 2.46777C12.8438 3.78027 13.5 5.37402 13.5 7.24902C13.5 9.12402 12.8438 10.7178 11.5312 12.0303C10.2188 13.3428 8.625 13.999 6.75 13.999C4.875 13.999 3.28125 13.3428 1.96875 12.0303C0.65625 10.7178 0 9.12402 0 7.24902C0 5.37402 0.65625 3.78027 1.96875 2.46777ZM11.0391 3.59277C10.4531 4.45996 9.45703 5.20996 8.05078 5.84277C8.19141 6.14746 8.34375 6.51074 8.50781 6.93262C9.82031 6.81543 11.1094 6.79199 12.375 6.8623C12.3047 5.62012 11.8594 4.53027 11.0391 3.59277ZM6.75 1.62402C6.35156 1.62402 5.89453 1.68262 5.37891 1.7998C6.08203 2.50293 6.80859 3.52246 7.55859 4.8584C8.82422 4.34277 9.75 3.69824 10.3359 2.9248C9.28125 2.05762 8.08594 1.62402 6.75 1.62402ZM4.21875 2.25684C2.71875 3.03027 1.74609 4.2373 1.30078 5.87793H2.17969C3.70312 5.87793 5.12109 5.67871 6.43359 5.28027C5.75391 4.06152 5.01562 3.05371 4.21875 2.25684ZM1.125 6.96777V7.24902C1.125 8.67871 1.59375 9.9209 2.53125 10.9756C3.42188 9.31152 4.85156 8.06934 6.82031 7.24902C6.9375 7.20215 7.10156 7.15527 7.3125 7.1084C7.17188 6.7334 7.05469 6.45215 6.96094 6.26465C5.55469 6.70996 3.9375 6.95605 2.10938 7.00293C2.01562 7.00293 1.85156 7.00293 1.61719 7.00293C1.38281 6.97949 1.21875 6.96777 1.125 6.96777ZM6.75 12.874C7.47656 12.874 8.14453 12.7568 8.75391 12.5225C8.63672 11.5381 8.46094 10.6123 8.22656 9.74512C8.13281 9.34668 7.94531 8.77246 7.66406 8.02246C7.38281 8.09277 7.18359 8.16309 7.06641 8.2334C5.30859 9.03027 4.05469 10.1787 3.30469 11.6787C4.33594 12.4756 5.48438 12.874 6.75 12.874ZM9.77344 11.96C11.3203 10.9521 12.1758 9.59277 12.3398 7.88184C10.957 7.78809 9.79688 7.78809 8.85938 7.88184C9.11719 8.6084 9.25781 9.05371 9.28125 9.21777C9.49219 10.0381 9.65625 10.9521 9.77344 11.96Z"
              fill="#8C8C8C"/>
    </g>

    <g id="footerFB">
        <path d="M4.5 4.99902H6.75L6.46875 7.24902H4.5V13.999H1.58203V7.24902H0V4.99902H1.58203V3.4873C1.58203 2.50293 1.82812 1.76465 2.32031 1.27246C2.8125 0.756836 3.63281 0.499023 4.78125 0.499023H6.75V2.74902H5.55469C5.10938 2.74902 4.81641 2.81934 4.67578 2.95996C4.55859 3.10059 4.5 3.33496 4.5 3.66309V4.99902Z"
              fill="#8C8C8C"/>
    </g>

    <g id="footerLinkedIn">
        <path d="M12.4102 0.499023C12.7148 0.499023 12.9727 0.604492 13.1836 0.81543C13.3945 1.00293 13.5 1.24902 13.5 1.55371V12.8389C13.5 13.1436 13.3945 13.4131 13.1836 13.6475C12.9727 13.8818 12.7148 13.999 12.4102 13.999H1.16016C0.855469 13.999 0.585938 13.8818 0.351562 13.6475C0.117188 13.4131 0 13.1436 0 12.8389V1.55371C0 1.24902 0.105469 1.00293 0.316406 0.81543C0.550781 0.604492 0.832031 0.499023 1.16016 0.499023H12.4102ZM4.18359 11.749V5.7373H2.25V11.749H4.18359ZM2.53125 4.54199C2.71875 4.72949 2.96484 4.82324 3.26953 4.82324C3.57422 4.82324 3.82031 4.72949 4.00781 4.54199C4.21875 4.33105 4.32422 4.08496 4.32422 3.80371C4.32422 3.49902 4.23047 3.25293 4.04297 3.06543C3.85547 2.85449 3.60938 2.74902 3.30469 2.74902C3 2.74902 2.74219 2.85449 2.53125 3.06543C2.34375 3.25293 2.25 3.49902 2.25 3.80371C2.25 4.08496 2.34375 4.33105 2.53125 4.54199ZM11.25 11.749V8.2334C11.25 7.36621 11.0391 6.70996 10.6172 6.26465C10.2188 5.81934 9.69141 5.59668 9.03516 5.59668C8.33203 5.59668 7.74609 5.9248 7.27734 6.58105V5.7373H5.34375V11.749H7.27734V8.33887C7.27734 8.10449 7.30078 7.94043 7.34766 7.84668C7.53516 7.37793 7.86328 7.14355 8.33203 7.14355C8.98828 7.14355 9.31641 7.57715 9.31641 8.44434V11.749H11.25Z"
              fill="#8C8C8C"/>
    </g>

    <g id="footerTwitter">
        <path d="M16.5938 2.11621C16.1719 2.77246 15.6094 3.3584 14.9062 3.87402V4.2959C14.9062 6.75684 14.0156 8.99512 12.2344 11.0107C10.4766 13.0029 8.13281 13.999 5.20312 13.999C3.32812 13.999 1.59375 13.4834 0 12.4521C0.375 12.499 0.644531 12.5225 0.808594 12.5225C2.37891 12.5225 3.78516 12.0303 5.02734 11.0459C4.30078 11.0225 3.64453 10.7998 3.05859 10.3779C2.47266 9.93262 2.07422 9.37012 1.86328 8.69043C2.14453 8.7373 2.35547 8.76074 2.49609 8.76074C2.73047 8.76074 3.03516 8.71387 3.41016 8.62012C2.63672 8.45605 1.98047 8.06934 1.44141 7.45996C0.925781 6.82715 0.667969 6.10059 0.667969 5.28027V5.24512C1.18359 5.52637 1.69922 5.66699 2.21484 5.66699C1.20703 5.01074 0.703125 4.06152 0.703125 2.81934C0.703125 2.2334 0.855469 1.6709 1.16016 1.13184C2.96484 3.3584 5.29688 4.54199 8.15625 4.68262C8.10938 4.51855 8.08594 4.26074 8.08594 3.90918C8.08594 2.94824 8.41406 2.13965 9.07031 1.4834C9.72656 0.827148 10.5352 0.499023 11.4961 0.499023C12.457 0.499023 13.2773 0.862305 13.957 1.58887C14.6602 1.47168 15.3867 1.19043 16.1367 0.745117C15.9023 1.56543 15.3984 2.19824 14.625 2.64355C15.3516 2.57324 16.0078 2.39746 16.5938 2.11621Z"
              fill="#8C8C8C"/>

    </g>

    <g id="footerYoutube">
        <path d="M17.8945 3.4873C17.9648 4.75293 18 6.00684 18 7.24902C18 8.49121 17.9648 9.74512 17.8945 11.0107C17.8945 11.8076 17.6367 12.4873 17.1211 13.0498C16.6289 13.5889 16.0195 13.8584 15.293 13.8584C13.4883 13.9521 11.3906 13.999 9 13.999C6.60938 13.999 4.51172 13.9521 2.70703 13.8584C1.98047 13.8584 1.35938 13.5889 0.84375 13.0498C0.351562 12.4873 0.105469 11.8076 0.105469 11.0107C0.0351562 9.74512 0 8.49121 0 7.24902C0 6.42871 0.046875 5.1748 0.140625 3.4873C0.140625 2.69043 0.386719 2.02246 0.878906 1.4834C1.37109 0.920898 1.98047 0.639648 2.70703 0.639648C4.41797 0.545898 6.41016 0.499023 8.68359 0.499023H9H9.31641C11.5898 0.499023 13.582 0.545898 15.293 0.639648C16.0195 0.639648 16.6289 0.920898 17.1211 1.4834C17.6367 2.02246 17.8945 2.69043 17.8945 3.4873ZM7.27734 10.6943L12.375 7.24902L7.27734 3.76855V10.6943Z"
              fill="#8C8C8C"/>
    </g>


</svg>
